<svg id="Layer_1" data-name="Layer 1" xmlns="http://www.w3.org/2000/svg" viewBox="0 0 1575.09 329.38"><defs><style>.cls-1{fill:#fff;}</style></defs><title>include2</title><path class="cls-1" d="M234.46,50.38a25.19,25.19,0,0,1,0-50.38h0a25.19,25.19,0,0,1,0,50.38Z"/><path class="cls-1" d="M234.46,120.13a25.19,25.19,0,0,1,0-50.38h0a25.19,25.19,0,0,1,0,50.38Z"/><path class="cls-1" d="M234.46,189.88a25.19,25.19,0,0,1,0-50.38h0a25.19,25.19,0,0,1,0,50.38Z"/><path class="cls-1" d="M234.46,259.63a25.19,25.19,0,0,1,0-50.38h0a25.19,25.19,0,0,1,0,50.38Z"/><path class="cls-1" d="M234.46,329.38a25.19,25.19,0,0,1,0-50.38h0a25.19,25.19,0,0,1,0,50.38Z"/><path class="cls-1" d="M95,50.38A25.19,25.19,0,0,1,94.92,0h0a25.19,25.19,0,1,1,0,50.38Z"/><path class="cls-1" d="M95,120.13a25.19,25.19,0,0,1,0-50.38h0a25.19,25.19,0,1,1,0,50.38Z"/><path class="cls-1" d="M95,189.88a25.19,25.19,0,0,1,0-50.38h0a25.19,25.19,0,1,1,0,50.38Z"/><path class="cls-1" d="M95,259.63a25.19,25.19,0,0,1,0-50.38h0a25.19,25.19,0,1,1,0,50.38Z"/><path class="cls-1" d="M95,329.38a25.19,25.19,0,0,1,0-50.38h0a25.19,25.19,0,1,1,0,50.38Z"/><path class="cls-1" d="M164.71,120.13a25.19,25.19,0,0,1,0-50.38h0a25.19,25.19,0,0,1,0,50.38Z"/><path class="cls-1" d="M304.21,120.13a25.19,25.19,0,0,1,0-50.38h0a25.19,25.19,0,0,1,0,50.38Z"/><path class="cls-1" d="M25.21,120.13a25.19,25.19,0,0,1,0-50.38h0a25.19,25.19,0,0,1,0,50.38Z"/><path class="cls-1" d="M304.21,259.63a25.19,25.19,0,0,1,0-50.38h0a25.19,25.19,0,0,1,0,50.38Z"/><path class="cls-1" d="M164.71,259.63a25.19,25.19,0,0,1,0-50.38h0a25.19,25.19,0,0,1,0,50.38Z"/><path class="cls-1" d="M25.21,259.63a25.19,25.19,0,0,1,0-50.38h0a25.19,25.19,0,0,1,0,50.38Z"/><path class="cls-1" d="M862.09,249.94H722.59a15.5,15.5,0,0,1-15.5-15.5V94.94a15.5,15.5,0,0,1,15.5-15.5h139.5a15.5,15.5,0,0,1,0,31h-124v108.5h124a15.5,15.5,0,0,1,0,31Z"/><path class="cls-1" d="M931.84,249.94a15.5,15.5,0,0,1-15.5-15.5V25.19a15.5,15.5,0,0,1,31,0V234.44A15.5,15.5,0,0,1,931.84,249.94Z"/><path class="cls-1" d="M1141.09,249.94h-139.5a15.5,15.5,0,0,1-15.5-15.5V94.94a15.5,15.5,0,1,1,31,0v124h108.5v-124a15.5,15.5,0,0,1,31,0v139.5A15.5,15.5,0,0,1,1141.09,249.94Z"/><path class="cls-1" d="M652.84,249.94a15.5,15.5,0,0,1-15.5-15.5v-124H528.84v124a15.5,15.5,0,1,1-31,0V94.94a15.5,15.5,0,0,1,15.5-15.5h139.5a15.5,15.5,0,0,1,15.5,15.5v139.5A15.5,15.5,0,0,1,652.84,249.94Z"/><path class="cls-1" d="M443.59,249.94a15.5,15.5,0,0,1-15.5-15.5V94.94a15.5,15.5,0,0,1,31,0v139.5A15.5,15.5,0,0,1,443.59,249.94Z"/><path class="cls-1" d="M1350.34,249.94h-139.5a15.5,15.5,0,0,1-15.5-15.5V94.94a15.5,15.5,0,0,1,15.5-15.5h139.5a15.5,15.5,0,0,1,15.5,15.5v139.5A15.5,15.5,0,0,1,1350.34,249.94Zm-124-31h108.5V110.44h-108.5Z"/><path class="cls-1" d="M1350.34,249.94a15.5,15.5,0,0,1-15.5-15.5V25.19a15.5,15.5,0,0,1,31,0V234.44A15.5,15.5,0,0,1,1350.34,249.94Z"/><path class="cls-1" d="M1559.59,249.94h-139.5a15.5,15.5,0,0,1-15.5-15.5V94.94a15.5,15.5,0,0,1,15.5-15.5h139.5a15.5,15.5,0,0,1,0,31h-124v108.5h124a15.5,15.5,0,0,1,0,31Z"/><path class="cls-1" d="M1524.71,180.19H1420.09a15.5,15.5,0,0,1,0-31h104.62a15.5,15.5,0,0,1,0,31Z"/></svg>